<?xml version="1.0" standalone="no"?>
<!DOCTYPE svg PUBLIC "-//W3C//DTD SVG 20010904//EN"
 "http://www.w3.org/TR/2001/REC-SVG-20010904/DTD/svg10.dtd">
<svg version="1.0" xmlns="http://www.w3.org/2000/svg"
 width="612.000000pt" height="612.000000pt" viewBox="0 0 612.000000 612.000000"
 preserveAspectRatio="xMidYMid meet">
<metadata>
Created by potrace 1.11, written by Peter Selinger 2001-2013
</metadata>
<g transform="translate(0.000000,612.000000) scale(0.100000,-0.100000)"
fill="#000000" stroke="none">
<path d="M3865 6103 c-71 -37 -118 -119 -109 -192 5 -45 38 -103 72 -129 22
-17 29 -30 26 -50 -1 -15 -6 -54 -9 -87 -4 -33 -8 -71 -10 -85 -11 -106 -17
-155 -25 -220 -5 -41 -12 -95 -14 -120 -3 -25 -8 -70 -11 -100 -3 -30 -8 -66
-10 -80 -2 -14 -6 -54 -10 -90 -4 -36 -8 -76 -10 -90 -2 -14 -7 -50 -10 -80
-3 -30 -10 -89 -15 -130 -5 -41 -12 -97 -15 -125 -6 -63 -13 -127 -26 -230
-14 -115 -17 -143 -24 -205 -3 -30 -8 -71 -10 -90 -2 -19 -7 -60 -10 -90 -3
-30 -7 -64 -9 -75 -2 -11 -7 -51 -11 -90 -3 -38 -8 -72 -11 -74 -2 -3 -21 4
-42 14 -20 10 -43 18 -49 16 -7 -1 -13 3 -13 9 0 6 -4 8 -10 5 -5 -3 -10 -2
-10 3 0 5 -21 9 -47 9 -27 1 -88 12 -138 26 -194 55 -335 72 -595 72 -216 0
-293 -6 -450 -36 -120 -23 -115 -24 -127 13 -6 18 -32 82 -57 142 -25 59 -46
110 -46 113 0 2 27 31 60 65 34 34 75 80 93 102 17 23 34 43 37 46 24 23 96
170 115 235 21 70 23 199 6 265 -56 208 -234 376 -464 437 -66 18 -240 24
-312 11 l-41 -8 -39 76 c-22 42 -55 93 -74 115 -28 34 -38 39 -60 34 -14 -4
-30 -11 -36 -16 -14 -14 -7 -76 20 -165 14 -45 25 -84 25 -87 0 -3 -30 -19
-67 -37 -227 -105 -472 -334 -630 -585 -40 -63 -127 -236 -148 -295 -21 -55
-74 -236 -80 -270 -34 -195 -37 -228 -32 -379 3 -86 7 -163 10 -171 2 -8 7
-37 11 -65 43 -277 181 -584 366 -810 62 -75 120 -136 218 -227 34 -32 62 -59
62 -61 0 -3 -25 -17 -56 -33 -105 -53 -189 -181 -183 -279 6 -102 85 -202 177
-224 144 -35 243 51 256 224 5 68 -36 179 -88 240 -39 45 -34 53 26 50 193
-12 333 -152 343 -342 7 -119 -32 -203 -149 -330 -86 -93 -100 -110 -142 -166
-180 -241 -69 -610 264 -880 188 -153 384 -255 657 -344 200 -65 219 -70 265
-78 19 -3 62 -12 95 -19 33 -8 85 -17 115 -21 30 -5 66 -10 80 -12 185 -27
631 -25 830 3 123 17 427 86 455 103 6 3 18 7 28 8 10 2 80 28 155 57 136 54
305 140 389 197 24 16 47 29 50 29 4 0 13 7 22 15 9 8 57 46 106 84 158 121
315 289 420 451 50 77 144 258 150 289 2 9 10 34 19 54 14 35 54 170 60 205 2
9 9 46 15 82 26 143 34 377 17 493 -4 20 -9 56 -12 80 -3 23 -17 85 -31 137
-13 52 -26 102 -28 110 -9 42 -62 167 -110 264 -30 59 -53 112 -50 116 3 5 13
7 23 5 9 -1 39 -6 65 -9 174 -24 346 -152 379 -283 15 -61 30 -80 17 -22 -26
118 -109 214 -241 278 -78 39 -196 71 -256 71 -23 0 -39 16 -101 99 -114 155
-283 310 -411 376 -167 87 -361 59 -460 -66 -141 -179 -2 -415 273 -464 66
-12 297 -12 353 -1 12 2 57 7 100 11 43 3 94 8 112 11 30 4 35 0 66 -49 105
-164 189 -396 222 -612 14 -97 20 -334 10 -405 -3 -19 -10 -66 -15 -105 -59
-399 -294 -787 -641 -1055 -25 -19 -47 -37 -50 -41 -15 -18 -209 -137 -300
-183 -260 -133 -583 -230 -875 -261 -33 -4 -89 -10 -125 -15 -64 -7 -501 -5
-550 3 -14 2 -54 7 -90 11 -36 4 -72 9 -80 11 -8 2 -31 7 -50 10 -118 19 -373
79 -402 95 -10 6 -22 10 -27 10 -5 0 -22 5 -38 12 -15 6 -30 12 -33 13 -3 1
-14 5 -25 9 -11 4 -33 13 -50 18 -64 23 -274 132 -350 183 -194 129 -330 276
-403 438 -17 37 -29 67 -27 67 2 0 -2 17 -10 39 -16 48 -13 204 5 246 7 17 14
32 15 35 17 50 85 137 220 284 28 31 41 52 78 126 28 58 32 75 32 150 0 97
-15 153 -60 225 -72 115 -192 178 -338 177 l-68 0 -128 126 c-232 229 -368
449 -451 729 -29 96 -35 123 -46 193 -3 19 -7 41 -10 49 -16 47 -22 291 -10
396 11 103 16 139 21 155 2 8 7 29 9 46 30 175 187 515 301 651 5 7 19 24 30
39 28 37 135 153 164 178 13 12 34 30 45 41 70 65 274 197 308 200 3 0 10 3
14 8 20 20 36 -2 74 -100 34 -89 84 -211 223 -543 5 -14 11 -29 13 -35 1 -5
39 -93 84 -195 44 -102 83 -194 86 -206 4 -17 -20 -39 -145 -133 -360 -269
-490 -464 -492 -739 -1 -209 85 -410 239 -559 60 -58 163 -123 193 -123 8 1
-7 10 -33 22 -27 11 -48 24 -48 29 0 5 -5 9 -10 9 -12 0 -69 49 -114 99 -17
19 -36 39 -41 45 -30 33 -77 118 -105 191 -38 100 -49 172 -46 290 4 135 26
209 95 320 71 115 147 191 356 353 6 4 39 28 75 52 36 25 71 51 78 58 23 21
31 14 62 -53 65 -143 70 -165 35 -165 -28 0 -184 -69 -249 -110 -129 -82 -180
-165 -173 -280 3 -40 1 -70 -7 -79 -8 -12 -8 -13 2 -7 6 4 12 2 12 -3 0 -6 -5
-11 -11 -11 -6 0 -9 -6 -6 -14 3 -7 0 -19 -6 -26 -9 -10 -9 -11 2 -5 11 6 13
4 8 -9 -4 -10 -7 -20 -7 -22 0 -3 -5 -2 -11 2 -8 4 -8 0 0 -15 9 -16 9 -21 -1
-21 -10 0 -10 -3 1 -9 8 -5 11 -16 8 -25 -4 -10 -1 -16 8 -16 9 0 12 -6 8 -17
-4 -11 -3 -14 5 -9 7 4 12 3 12 -3 0 -17 71 -90 120 -124 52 -37 150 -88 150
-79 0 3 6 0 12 -6 7 -7 13 -37 14 -68 1 -30 5 -58 9 -62 5 -4 5 -1 0 7 -6 10
-4 12 4 7 8 -6 9 -12 2 -20 -7 -9 -7 -16 2 -25 7 -7 8 -14 2 -19 -13 -9 -15
-53 -2 -45 5 3 8 -31 6 -85 -2 -49 -2 -89 1 -87 3 2 6 -30 8 -71 2 -54 -1 -74
-10 -74 -8 -1 -7 -6 4 -14 10 -7 15 -15 12 -18 -4 -4 -8 -449 -4 -468 1 -3 3
-35 6 -73 6 -79 5 -80 -85 -126 -124 -63 -194 -122 -233 -196 -17 -33 -21 -61
-24 -175 -2 -74 -5 -147 -8 -162 -2 -16 0 -28 5 -28 5 0 9 -7 9 -15 0 -20 18
-51 55 -93 35 -40 172 -132 196 -132 9 0 22 -7 29 -15 7 -9 15 -13 18 -11 2 3
14 0 26 -6 11 -7 32 -14 45 -16 14 -2 32 -7 41 -12 16 -9 151 -45 205 -54 17
-3 41 -8 55 -11 148 -27 298 -39 495 -39 193 0 357 13 495 39 47 8 98 18 114
20 39 6 124 31 225 65 46 16 88 27 94 23 6 -3 7 -1 3 5 -7 11 7 16 41 15 7 0
11 4 10 10 -1 6 3 11 9 12 6 0 18 8 28 18 10 9 23 17 31 17 14 0 151 129 154
145 5 38 24 74 34 68 7 -4 6 0 -1 10 -8 9 -16 53 -19 101 l-5 85 93 -5 c130
-7 343 -7 409 1 114 12 147 17 215 31 74 16 193 54 210 67 6 4 26 17 45 30 45
29 65 65 56 102 -8 30 -63 88 -76 80 -8 -5 -28 80 -35 150 -2 22 -6 54 -9 70
-4 17 -11 59 -17 95 -6 36 -13 76 -16 90 -3 14 -7 39 -9 55 -2 17 -6 41 -9 55
-8 35 -13 59 -19 105 -3 22 -8 51 -10 65 -3 14 -7 39 -10 55 -3 17 -7 44 -10
60 -6 32 -12 65 -22 130 -3 22 -8 43 -10 46 -2 3 -6 21 -9 40 -13 74 -58 106
-202 140 -67 17 -123 22 -233 23 -202 1 -330 -18 -422 -65 -47 -24 -65 -51
-73 -114 -4 -27 -13 -64 -20 -82 -7 -17 -11 -33 -9 -35 2 -3 0 -29 -6 -59 -5
-30 -12 -70 -15 -89 -3 -19 -8 -42 -11 -51 -2 -9 -6 -36 -8 -60 -2 -24 -7 -55
-10 -69 -3 -14 -8 -41 -11 -60 -3 -19 -11 -71 -19 -115 -8 -44 -16 -101 -19
-127 -12 -96 -30 -168 -42 -168 -42 0 -45 11 -18 58 21 35 23 44 10 39 -14 -5
-16 1 -13 51 1 32 5 63 9 68 3 6 3 43 -2 83 -4 40 -4 74 1 77 9 6 -1 111 -12
133 -5 9 -1 25 7 38 12 18 13 26 4 37 -12 15 -11 126 1 126 9 0 4 72 -6 88 -4
7 -2 22 5 34 9 17 9 23 0 26 -8 3 -9 8 -2 16 6 7 5 35 -3 79 -7 37 -10 67 -6
67 12 0 19 39 9 42 -5 2 -10 17 -12 35 -1 17 -5 29 -8 27 -14 -8 -16 36 -3 47
8 6 14 9 14 5 0 -9 192 91 222 117 51 42 63 54 82 77 23 29 49 89 50 115 0 11
5 23 10 27 8 5 8 8 0 8 -7 0 -10 46 -10 133 0 170 -16 205 -142 304 -23 18
-23 19 -7 63 9 25 18 50 19 55 2 6 6 17 9 25 11 25 178 484 182 500 2 8 36
103 75 210 40 107 110 301 156 430 114 315 104 296 154 304 30 5 52 18 84 50
124 123 41 318 -134 319 -149 0 -235 -181 -143 -302 16 -20 26 -43 25 -51 -4
-16 -98 -320 -112 -360 -5 -14 -32 -99 -60 -190 -28 -91 -57 -183 -65 -205 -7
-22 -43 -132 -78 -245 -36 -113 -89 -279 -118 -370 -30 -91 -54 -169 -54 -175
-1 -13 -28 -7 -37 8 -4 7 -5 21 -3 32 4 16 54 333 81 510 4 22 8 47 9 55 2 8
8 51 15 95 6 44 13 91 15 104 2 13 7 45 11 70 4 25 8 55 10 66 3 11 7 36 10
55 3 19 11 73 19 120 8 47 17 108 20 135 4 28 8 57 10 65 3 8 7 33 10 55 3 22
15 96 26 165 11 69 22 141 24 160 4 35 14 98 21 135 4 20 12 73 19 122 2 15 7
46 10 68 4 22 8 47 9 55 2 8 22 25 46 38 74 39 110 96 110 172 0 136 -148 232
-265 173z m-2012 -957 c51 -12 125 -43 178 -75 318 -197 348 -539 74 -850 -52
-59 -96 -103 -100 -99 -5 6 -40 87 -140 323 -102 240 -118 279 -166 383 -16
35 -29 65 -29 67 0 2 -16 39 -36 82 -41 88 -74 163 -74 168 0 13 238 13 293 1z
m2689 -1820 c37 -6 148 -51 158 -64 3 -4 16 -13 30 -20 14 -7 43 -29 65 -49
75 -66 145 -134 145 -140 0 -3 10 -15 23 -27 23 -22 118 -148 114 -152 -1 -1
-45 -5 -97 -9 -52 -4 -111 -9 -130 -11 -57 -5 -299 -6 -307 -1 -5 3 -25 8 -45
11 -20 3 -61 16 -90 29 -247 110 -225 395 34 435 29 5 55 7 58 6 3 -1 22 -5
42 -8z m-1034 -478 c-2 -6 -12 -12 -21 -14 -9 -1 -15 2 -11 7 3 5 10 7 15 4 5
-4 9 -1 9 4 0 6 3 11 6 11 3 0 4 -5 2 -12z m-2374 -644 c41 -43 86 -123 94
-167 30 -159 -42 -289 -160 -288 -62 0 -73 4 -123 39 -87 61 -112 168 -63 275
26 56 100 136 126 137 6 0 12 4 12 9 0 5 17 13 38 19 20 5 38 10 40 11 1 1 17
-15 36 -35z m2746 -404 c0 -5 -4 -10 -10 -10 -5 0 -10 5 -10 10 0 6 5 10 10
10 6 0 10 -4 10 -10z"/>
</g>
</svg>
